<svg width="177" height="55" viewBox="0 0 177 55" fill="none" xmlns="http://www.w3.org/2000/svg">
<path d="M61.2603 42V14H84.6047V19.96H68.4819V25.2H79.2304V30.96H68.4819V42H61.2603Z" fill="white"/>
<path d="M80.0574 42L92.1074 14H100.379L112.261 42H104.451L101.764 35.24H90.302L87.5729 42H80.0574ZM92.4853 29.76H99.623L96.0961 20.8L92.4853 29.76Z" fill="white"/>
<path d="M114.399 42V14H129.43C130.942 14 132.327 14.2267 133.587 14.68C134.875 15.1067 135.966 15.72 136.862 16.52C137.786 17.2933 138.499 18.2267 139.003 19.32C139.535 20.4133 139.801 21.6133 139.801 22.92C139.801 24.68 139.297 26.2533 138.289 27.64C137.282 29.0267 135.952 30.08 134.301 30.8L140.725 42H132.663L127.121 31.8H121.621V42H114.399ZM128.759 19.88H121.621V26.2H128.759C129.878 26.2 130.774 25.9067 131.446 25.32C132.145 24.7333 132.495 23.9733 132.495 23.04C132.495 22.1067 132.145 21.3467 131.446 20.76C130.774 20.1733 129.878 19.88 128.759 19.88Z" fill="white"/>
<path d="M159.802 40L150.145 22.84V42H143.511V14H152.622L159.886 27.2L167.149 14H176.26V42H169.458V22.92L159.802 40Z" fill="white"/>
<path d="M37.5407 21.4825C37.5638 21.3655 37.5638 21.2472 37.5638 21.1302C37.5638 12.0674 30.1917 4.69532 21.1289 4.69532C12.0661 4.69532 4.69532 12.0674 4.69532 21.1302C4.69532 21.2472 4.69532 21.3655 4.71846 21.4825C3.16921 21.2472 1.59553 21.1302 0 21.1302C0 9.46135 9.46135 0 21.1302 0C32.7991 0 42.2604 9.46135 42.2604 21.1302C40.6636 21.1302 39.0899 21.2472 37.5407 21.4825Z" fill="#FFC90A"/>
<path d="M32.8683 21.1309C32.8683 21.6001 32.8452 22.0694 32.7745 22.54C30.8022 23.1275 28.9238 23.9015 27.1393 24.8169C27.7963 23.7369 28.1717 22.4693 28.1717 21.1309C28.1717 17.2571 25.0025 14.0879 21.1287 14.0879C17.255 14.0879 14.0858 17.2571 14.0858 21.1309C14.0858 22.4693 14.4612 23.7369 15.1182 24.8169C13.3336 23.9015 11.4553 23.1262 9.48302 22.54C9.4123 22.0707 9.38916 21.6014 9.38916 21.1309C9.38916 14.651 14.6476 9.39258 21.1275 9.39258C27.6073 9.39258 32.8683 14.651 32.8683 21.1309Z" fill="#FFC90A"/>
<path d="M21.1304 18.7832C19.8331 18.7832 18.7827 19.8349 18.7827 21.1309C18.7827 22.4281 19.8344 23.4785 21.1304 23.4785C22.4276 23.4785 23.478 22.4268 23.478 21.1309C23.478 19.8336 22.4263 18.7832 21.1304 18.7832Z" fill="#FFC90A"/>
<path d="M42.2604 25.8262V21.1309C24.1066 21.1309 9.39062 35.8468 9.39062 53.9994H14.0859C14.0872 38.4644 26.7255 25.8262 42.2604 25.8262Z" fill="#339B76"/>
<path d="M42.2606 44.6094V39.9141C34.4809 39.9141 28.1733 46.2203 28.1733 54.0013H32.8687C32.8687 48.8213 37.0818 44.6094 42.2606 44.6094Z" fill="#339B76"/>
<path d="M42.2606 35.2168V30.5215C29.2945 30.5215 18.7827 41.0332 18.7827 53.9993H23.478C23.478 43.6432 31.9031 35.2168 42.2606 35.2168Z" fill="#339B76"/>
<path d="M10.7059 44.8434C9.83677 47.7542 9.39063 50.8308 9.39063 54C9.39063 48.811 5.18773 44.6094 0 44.6094V39.9141C4.27233 39.9128 8.12295 41.8387 10.7059 44.8434Z" fill="#C9D935"/>
<path d="M14.8844 35.8275C13.9921 37.1428 13.1937 38.5506 12.5136 40.006C9.17978 37.0489 4.78917 35.2168 0 35.2168V30.5215C5.65829 30.5215 10.8229 32.5169 14.8844 35.8275Z" fill="#C9D935"/>
<path d="M21.1302 28.8552C19.9332 29.8414 18.7826 30.9445 17.7489 32.1183C12.9121 28.1738 6.71513 25.8262 0 25.8262V21.1309C8.02909 21.1309 15.4012 24.0185 21.1302 28.8552Z" fill="#C9D935"/>
</svg>
