<svg width="24" height="25" viewBox="0 0 24 25" fill="none" xmlns="http://www.w3.org/2000/svg">
<path fill-rule="evenodd" clip-rule="evenodd" d="M13.6348 20.7409V12.7797H16.3582L16.7668 9.6761H13.6348V7.69493C13.6348 6.79666 13.8881 6.1845 15.2029 6.1845L16.877 6.18382V3.40789C16.5875 3.37098 15.5937 3.28638 14.437 3.28638C12.0216 3.28638 10.368 4.73246 10.368 7.38756V9.6761H7.63635V12.7797H10.368V20.7409H13.6348Z" fill="#023F3A"/>
<mask id="mask0_197_2729" style="mask-type:luminance" maskUnits="userSpaceOnUse" x="7" y="3" width="10" height="18">
<path fill-rule="evenodd" clip-rule="evenodd" d="M13.6348 20.7409V12.7797H16.3582L16.7668 9.6761H13.6348V7.69493C13.6348 6.79666 13.8881 6.1845 15.2029 6.1845L16.877 6.18382V3.40789C16.5875 3.37098 15.5937 3.28638 14.437 3.28638C12.0216 3.28638 10.368 4.73246 10.368 7.38756V9.6761H7.63635V12.7797H10.368V20.7409H13.6348Z" fill="white"/>
</mask>
<g mask="url(#mask0_197_2729)">
</g>
</svg>
