<svg width="24" height="25" viewBox="0 0 24 25" fill="none" xmlns="http://www.w3.org/2000/svg">
<path fill-rule="evenodd" clip-rule="evenodd" d="M7.60063 2.19543H16.3991C19.3873 2.19543 21.8183 4.62643 21.8182 7.61436V16.4129C21.8182 19.4008 19.3873 21.8318 16.3991 21.8318H7.60063C4.6127 21.8318 2.18182 19.4009 2.18182 16.4129V7.61436C2.18182 4.62643 4.6127 2.19543 7.60063 2.19543ZM16.3993 20.0896C18.4266 20.0896 20.0761 18.4403 20.0761 16.4129H20.076V7.61436C20.076 5.5871 18.4265 3.93767 16.3991 3.93767H7.60063C5.57337 3.93767 3.92406 5.5871 3.92406 7.61436V16.4129C3.92406 18.4403 5.57337 20.0897 7.60063 20.0896H16.3993ZM6.85715 12.0137C6.85715 9.17786 9.16419 6.87076 12 6.87076C14.8358 6.87076 17.1429 9.17786 17.1429 12.0137C17.1429 14.8495 14.8358 17.1565 12 17.1565C9.16419 17.1565 6.85715 14.8495 6.85715 12.0137ZM8.62799 12.0136C8.62799 13.8729 10.1407 15.3855 12 15.3855C13.8593 15.3855 15.372 13.8729 15.372 12.0136C15.372 10.1542 13.8594 8.64152 12 8.64152C10.1406 8.64152 8.62799 10.1542 8.62799 12.0136Z" fill="#023F3A"/>
<mask id="mask0_197_2731" style="mask-type:luminance" maskUnits="userSpaceOnUse" x="2" y="2" width="20" height="20">
<path fill-rule="evenodd" clip-rule="evenodd" d="M7.60063 2.19543H16.3991C19.3873 2.19543 21.8183 4.62643 21.8182 7.61436V16.4129C21.8182 19.4008 19.3873 21.8318 16.3991 21.8318H7.60063C4.6127 21.8318 2.18182 19.4009 2.18182 16.4129V7.61436C2.18182 4.62643 4.6127 2.19543 7.60063 2.19543ZM16.3993 20.0896C18.4266 20.0896 20.0761 18.4403 20.0761 16.4129H20.076V7.61436C20.076 5.5871 18.4265 3.93767 16.3991 3.93767H7.60063C5.57337 3.93767 3.92406 5.5871 3.92406 7.61436V16.4129C3.92406 18.4403 5.57337 20.0897 7.60063 20.0896H16.3993ZM6.85715 12.0137C6.85715 9.17786 9.16419 6.87076 12 6.87076C14.8358 6.87076 17.1429 9.17786 17.1429 12.0137C17.1429 14.8495 14.8358 17.1565 12 17.1565C9.16419 17.1565 6.85715 14.8495 6.85715 12.0137ZM8.62799 12.0136C8.62799 13.8729 10.1407 15.3855 12 15.3855C13.8593 15.3855 15.372 13.8729 15.372 12.0136C15.372 10.1542 13.8594 8.64152 12 8.64152C10.1406 8.64152 8.62799 10.1542 8.62799 12.0136Z" fill="white"/>
</mask>
<g mask="url(#mask0_197_2731)">
</g>
</svg>
