<svg width="24" height="25" viewBox="0 0 24 25" fill="none" xmlns="http://www.w3.org/2000/svg">
<path d="M19.2 3.01367H4.8C3.81 3.01367 3 3.82367 3 4.81367V19.2137C3 20.2037 3.81 21.0137 4.8 21.0137H19.2C20.19 21.0137 21 20.2037 21 19.2137V4.81367C21 3.82367 20.19 3.01367 19.2 3.01367ZM8.4 18.3137H5.7V10.2137H8.4V18.3137ZM7.05 8.68367C6.15 8.68367 5.43 7.96367 5.43 7.06367C5.43 6.16367 6.15 5.44367 7.05 5.44367C7.95 5.44367 8.67 6.16367 8.67 7.06367C8.67 7.96367 7.95 8.68367 7.05 8.68367ZM18.3 18.3137H15.6V13.5437C15.6 12.8237 14.97 12.1937 14.25 12.1937C13.53 12.1937 12.9 12.8237 12.9 13.5437V18.3137H10.2V10.2137H12.9V11.2937C13.35 10.5737 14.34 10.0337 15.15 10.0337C16.86 10.0337 18.3 11.4737 18.3 13.1837V18.3137Z" fill="#023F3A"/>
</svg>
