<svg width="24" height="25" viewBox="0 0 24 25" fill="none" xmlns="http://www.w3.org/2000/svg">
<path fill-rule="evenodd" clip-rule="evenodd" d="M21.8182 6.15965C21.1356 6.46211 20.4032 6.66723 19.6337 6.7588C20.4194 6.28829 21.0209 5.54199 21.3059 4.65544C20.5689 5.09117 19.7553 5.40756 18.8885 5.57908C18.1943 4.83856 17.207 4.37732 16.1118 4.37732C14.0108 4.37732 12.3073 6.08086 12.3073 8.18074C12.3073 8.47856 12.3409 8.76944 12.4058 9.04759C9.24437 8.8888 6.44107 7.37417 4.56486 5.07262C4.23689 5.63353 4.05031 6.28711 4.05031 6.98477C4.05031 8.30474 4.72246 9.46941 5.74228 10.1508C5.1188 10.13 4.5324 9.95844 4.01904 9.67335V9.72087C4.01904 11.5635 5.33089 13.1013 7.07034 13.4513C6.75164 13.537 6.41558 13.5846 6.06792 13.5846C5.82225 13.5846 5.58468 13.5602 5.35174 13.5139C5.83613 15.0262 7.24071 16.126 8.90486 16.1561C7.60343 17.1759 5.96246 17.782 4.18013 17.782C3.87304 17.782 3.57055 17.7635 3.27274 17.7299C4.95658 18.8111 6.95564 19.4415 9.10419 19.4415C16.1026 19.4415 19.9281 13.6448 19.9281 8.61765L19.9153 8.12514C20.6628 7.59202 21.3094 6.9222 21.8182 6.15965Z" fill="#023F3A"/>
<mask id="mask0_197_2730" style="mask-type:luminance" maskUnits="userSpaceOnUse" x="3" y="4" width="19" height="16">
<path fill-rule="evenodd" clip-rule="evenodd" d="M21.8182 6.15965C21.1356 6.46211 20.4032 6.66723 19.6337 6.7588C20.4194 6.28829 21.0209 5.54199 21.3059 4.65544C20.5689 5.09117 19.7553 5.40756 18.8885 5.57908C18.1943 4.83856 17.207 4.37732 16.1118 4.37732C14.0108 4.37732 12.3073 6.08086 12.3073 8.18074C12.3073 8.47856 12.3409 8.76944 12.4058 9.04759C9.24437 8.8888 6.44107 7.37417 4.56486 5.07262C4.23689 5.63353 4.05031 6.28711 4.05031 6.98477C4.05031 8.30474 4.72246 9.46941 5.74228 10.1508C5.1188 10.13 4.5324 9.95844 4.01904 9.67335V9.72087C4.01904 11.5635 5.33089 13.1013 7.07034 13.4513C6.75164 13.537 6.41558 13.5846 6.06792 13.5846C5.82225 13.5846 5.58468 13.5602 5.35174 13.5139C5.83613 15.0262 7.24071 16.126 8.90486 16.1561C7.60343 17.1759 5.96246 17.782 4.18013 17.782C3.87304 17.782 3.57055 17.7635 3.27274 17.7299C4.95658 18.8111 6.95564 19.4415 9.10419 19.4415C16.1026 19.4415 19.9281 13.6448 19.9281 8.61765L19.9153 8.12514C20.6628 7.59202 21.3094 6.9222 21.8182 6.15965Z" fill="white"/>
</mask>
<g mask="url(#mask0_197_2730)">
</g>
</svg>
